<?xml version="1.0" encoding="UTF-8"?>
<svg id="Capa_2" data-name="Capa 2" xmlns="http://www.w3.org/2000/svg" viewBox="0 0 306.82 268.82">
  <defs>
    <style>
      .cls-1 {
        fill: #803739;
      }
    </style>
  </defs>
  <g id="Capa_1-2" data-name="Capa 1">
    <g>
      <path class="cls-1" d="M125.03,264.9c-9.6-4.8-18.1-13.62-18.1-23.67,0-10.05,0-155.25,0-155.25-1.33-16.86-6.38-30.97-18.8-39.68L.41,0s-.93,185.16,0,186.93c1.22,13.75,10.94,21.93,22.97,28.66l101.64,49.32Z"/>
      <path class="cls-1" d="M21.28,213.83c9.69,4.62,21.87,5.9,29.8-.28,7.93-6.18,122.44-95.44,122.44-95.44,14.11-9.32,28.35-14.01,42.85-9.57l90.45,40.72s-145.46,114.56-147.43,114.92c-11.59,7.49-24.02,4.85-36.72-.5l-101.38-49.85Z"/>
    </g>
  </g>
</svg>