<svg fill="none" height="24" viewBox="0 0 24 24" width="24" xmlns="http://www.w3.org/2000/svg"><g clip-rule="evenodd" fill-rule="evenodd"><path d="m14.9244 9.06445c.2929.29289.2929.76777 0 1.06065l-4.792 4.792c-.29291.2929-.76778.2929-1.06068 0-.29289-.2929-.29289-.7678 0-1.0607l4.79198-4.79195c.2929-.29289.7678-.29289 1.0607 0z" fill="#4ded30"/><path d="m9.06952 9.06275c.2929-.29289.76777-.29289 1.06068 0l4.8 4.79995c.2929.2929.2929.7678 0 1.0607s-.7678.2929-1.0607 0l-4.79998-4.8c-.29289-.29288-.29289-.76776 0-1.06065z" fill="#4ded30"/><path d="m4.24329 4.24342c1.66778-1.66778 4.24661-2.2433 7.75671-2.2433s6.0889.57552 7.7567 2.2433c1.6678 1.66777 2.2433 4.2466 2.2433 7.75668 0 3.5101-.5755 6.089-2.2433 7.7567-1.6678 1.6678-4.2466 2.2433-7.7567 2.2433s-6.08893-.5755-7.75671-2.2433c-1.66777-1.6677-2.24329-4.2466-2.24329-7.7567 0-3.51008.57552-6.08891 2.24329-7.75668zm1.06067 1.06066c-1.22298 1.22297-1.80396 3.26914-1.80396 6.69602 0 3.4269.58098 5.4731 1.80396 6.6961 1.22297 1.2229 3.26914 1.8039 6.69604 1.8039s5.4731-.581 6.696-1.8039c1.223-1.223 1.804-3.2692 1.804-6.6961 0-3.42688-.581-5.47305-1.804-6.69602-1.2229-1.22298-3.2691-1.80396-6.696-1.80396s-5.47307.58098-6.69604 1.80396z" fill="#00ab08"/></g></svg>