<svg height="24" viewBox="0 0 24 24" width="24" xmlns="http://www.w3.org/2000/svg" transform="rotate(270)">
    <path
        d="m16.5021 12.3313c0 .144-.041.289-.128.418-.827 1.229-2.909 4.091-4.374 4.091s-3.54503-2.862-4.37103-4.092c-.231-.344-.139-.81.205-1.04.344-.231.81-.14 1.041.204.78992 1.1752 1.70733 2.2811 2.37493 2.9055v-6.89796c0-.414.336-.75.75-.75s.75.336.75.75v6.90606c.6621-.6231 1.5854-1.7336 2.3801-2.9146.231-.344.697-.434 1.041-.203.215.144.331.382.331.623z"
        fill="#4ded30" />
    <path
        d="m12 22c7.383 0 10-2.617 10-10s-2.617-10-10-10-10 2.617-10 10 2.617 10 10 10zm0-1.5c-6.514 0-8.5-1.986-8.5-8.5s1.986-8.5 8.5-8.5 8.5 1.986 8.5 8.5-1.986 8.5-8.5 8.5z"
        fill="#00ab08" fill-rule="evenodd" />
</svg>